<svg width="19" height="19" viewBox="0 0 19 19" fill="none" xmlns="http://www.w3.org/2000/svg">
<g id="Menu Icones">
<path id="Icon" fill-rule="evenodd" clip-rule="evenodd" d="M4.47784 0.973633C4.89389 0.973633 5.23117 1.30521 5.23117 1.71423V3.36095C8.07145 3.11228 10.9286 3.11228 13.7689 3.36096V1.71423C13.7689 1.30521 14.1062 0.973633 14.5222 0.973633C14.9383 0.973633 15.2755 1.30521 15.2755 1.71423V3.50789C16.7752 3.71635 17.96 4.88247 18.1605 6.36995L18.2475 7.01472C18.6131 9.72662 18.5815 12.476 18.1537 15.1791C17.9417 16.5182 16.8352 17.5467 15.4634 17.6797L14.2651 17.7958C11.0961 18.1031 7.90395 18.1031 4.7349 17.7958L3.5366 17.6797C2.1648 17.5467 1.05825 16.5182 0.846308 15.1791C0.418459 12.476 0.386879 9.72662 0.75253 7.01472L0.839466 6.36995C1.04003 4.88246 2.22481 3.71632 3.72451 3.50788V1.71423C3.72451 1.30521 4.06179 0.973633 4.47784 0.973633ZM4.92498 4.87688C7.96761 4.5819 11.0324 4.5819 14.075 4.87688L14.9845 4.96505C15.8551 5.04946 16.552 5.71201 16.6669 6.56459L16.7539 7.20935C16.7843 7.4346 16.8117 7.66013 16.8363 7.88587H2.16368C2.18827 7.66013 2.21575 7.43461 2.24612 7.20936L2.33306 6.56459C2.44801 5.71201 3.14492 5.04946 4.01551 4.96505L4.92498 4.87688ZM2.04392 9.36706C1.9453 11.2315 2.04246 13.1028 2.33505 14.9514C2.44136 15.623 2.99639 16.1389 3.68447 16.2056L4.88277 16.3218C7.95348 16.6195 11.0465 16.6195 14.1172 16.3218L15.3155 16.2056C16.0036 16.1389 16.5586 15.623 16.665 14.9514C16.9575 13.1028 17.0547 11.2315 16.9561 9.36706H2.04392Z" fill="#454545"/>
</g>
</svg>
