<svg width="19" height="19" viewBox="0 0 19 19" fill="none" xmlns="http://www.w3.org/2000/svg">
<g id="Menu Icones - Modo Claro">
<g id="Icon">
<path fill-rule="evenodd" clip-rule="evenodd" d="M9.5 2.27699L7.60881 4.13075C7.40752 4.32806 7.13029 4.43948 6.84064 4.43948H4.15839V6.98055C4.15839 7.25496 4.04078 7.5176 3.83251 7.7083L1.87577 9.49995L3.83251 11.2916C4.04078 11.4823 4.15839 11.7449 4.15839 12.0193V14.5604H6.84064C7.13029 14.5604 7.40752 14.6718 7.60881 14.8692L9.5 16.7229L11.3912 14.8692C11.5925 14.6718 11.8697 14.5604 12.1594 14.5604H14.8416V12.0193C14.8416 11.7449 14.9592 11.4823 15.1675 11.2916L17.1242 9.49995L15.1675 7.7083C14.9592 7.5176 14.8416 7.25496 14.8416 6.98056V4.43948H12.1594C11.8697 4.43948 11.5925 4.32806 11.3912 4.13075L9.5 2.27699ZM8.73182 1.28236C9.15177 0.870723 9.84822 0.870723 10.2682 1.28236L12.25 3.22496H15.0553C15.6453 3.22496 16.1236 3.67809 16.1236 4.23706V6.89469L18.1741 8.7722C18.6086 9.17005 18.6086 9.82985 18.1741 10.2277L16.1236 12.1052V14.7628C16.1236 15.3218 15.6453 15.7749 15.0553 15.7749H12.25L10.2682 17.7175C9.84822 18.1292 9.15177 18.1292 8.73182 17.7175L6.74999 15.7749H3.94473C3.35471 15.7749 2.8764 15.3218 2.8764 14.7628V12.1052L0.825881 10.2277C0.391373 9.82985 0.391373 9.17005 0.825881 8.7722L2.8764 6.89468V4.23706C2.8764 3.67809 3.35471 3.22496 3.94473 3.22496H6.75L8.73182 1.28236Z" fill="#747474"/>
<path fill-rule="evenodd" clip-rule="evenodd" d="M5.44038 9.49995C5.44038 7.37589 7.25793 5.65399 9.5 5.65399C11.7421 5.65399 13.5596 7.37589 13.5596 9.49995C13.5596 11.624 11.7421 13.3459 9.5 13.3459C7.25793 13.3459 5.44038 11.624 5.44038 9.49995ZM9.5 6.8685C7.96595 6.8685 6.72236 8.04664 6.72236 9.49995C6.72236 10.9533 7.96595 12.1314 9.5 12.1314C11.034 12.1314 12.2776 10.9533 12.2776 9.49995C12.2776 8.04664 11.034 6.8685 9.5 6.8685Z" fill="#747474"/>
</g>
</g>
</svg>
