<svg width="20" height="21" viewBox="0 0 20 21" fill="none" xmlns="http://www.w3.org/2000/svg">
<g id="Outline/General/Filter">
<path id="Icon" fill-rule="evenodd" clip-rule="evenodd" d="M14.9881 5.02007C11.673 4.64956 8.32686 4.64956 5.01172 5.02007C4.78742 5.04514 4.6794 5.30819 4.82135 5.48366L7.7522 9.10662C8.80211 10.4045 9.37491 12.0233 9.37491 13.6926V16.1003L10.6249 17.017V13.6926C10.6249 12.0233 11.1977 10.4045 12.2476 9.10662L15.1785 5.48366C15.3204 5.30819 15.2124 5.04514 14.9881 5.02007ZM4.87288 3.77781C8.2803 3.39698 11.7195 3.39698 15.1269 3.77781C16.3327 3.91257 16.9134 5.32656 16.1503 6.26983L13.2194 9.89279C12.3495 10.9681 11.8749 12.3094 11.8749 13.6926V18.2503C11.8749 18.4859 11.7425 18.7014 11.5324 18.8079C11.3223 18.9143 11.0702 18.8936 10.8803 18.7543L8.38031 16.921C8.21976 16.8033 8.12491 16.6161 8.12491 16.417V13.6926C8.12491 12.3094 7.65031 10.9682 6.78038 9.89279L3.84953 6.26983C3.08646 5.32656 3.66711 3.91257 4.87288 3.77781Z" fill="#747474" stroke="#747474" stroke-width="0.183333" stroke-linecap="round" stroke-linejoin="round"/>
</g>
</svg>
