<svg width="19" height="19" viewBox="0 0 19 19" fill="none" xmlns="http://www.w3.org/2000/svg">
<g id="Menu Icones">
<path id="Icon" fill-rule="evenodd" clip-rule="evenodd" d="M11.0857 2.95064C10.1995 2.17401 8.80045 2.17401 7.91432 2.95064L3.20513 7.07784C3.08975 7.17896 3.01214 7.31069 2.9833 7.45434C2.41926 10.2637 2.37762 13.1399 2.86014 15.9619L2.97468 16.6317H6.00437V10.8571C6.00437 10.472 6.34616 10.1598 6.76778 10.1598H12.2322C12.6538 10.1598 12.9956 10.472 12.9956 10.8571V16.6317H16.0253L16.1399 15.9619C16.6224 13.1399 16.5807 10.2637 16.0167 7.45434C15.9879 7.31069 15.9102 7.17896 15.7949 7.07784L11.0857 2.95064ZM6.85719 1.94441C8.33409 0.650039 10.6659 0.650039 12.1428 1.94441L16.852 6.07162C17.1987 6.37544 17.4318 6.7712 17.5185 7.20282C18.1135 10.1663 18.1574 13.2002 17.6484 16.1771L17.4644 17.2532C17.3883 17.6982 16.9687 18.0263 16.4755 18.0263H12.2322C11.8106 18.0263 11.4688 17.7141 11.4688 17.329V11.5544H7.5312V17.329C7.5312 17.7141 7.1894 18.0263 6.76778 18.0263H2.5245C2.03135 18.0263 1.61169 17.6982 1.5356 17.2532L1.3516 16.1771C0.842609 13.2002 0.886528 10.1663 1.48151 7.20282C1.56817 6.7712 1.80135 6.37544 2.14801 6.07162L6.85719 1.94441Z" fill="#747474"/>
</g>
</svg>
