<svg width="19" height="19" viewBox="0 0 19 19" fill="none" xmlns="http://www.w3.org/2000/svg">
<g id="Menu Icones">
<path id="Icon" fill-rule="evenodd" clip-rule="evenodd" d="M4.9552 3.70324V2.54514C4.9552 1.68754 5.56157 0.958985 6.38122 0.831768L7.54843 0.650607C8.84224 0.449798 10.1578 0.449798 11.4516 0.650607L12.6188 0.831768C13.4384 0.958985 14.0448 1.68754 14.0448 2.54514V3.70324L15.6848 3.84022C16.9405 3.94509 17.9648 4.92337 18.1662 6.21013C18.6113 9.05399 18.6113 11.9534 18.1662 14.7973C17.9648 16.0841 16.9405 17.0623 15.6848 17.1672L13.8937 17.3168C10.9693 17.5611 8.03066 17.5611 5.10625 17.3168L3.3152 17.1672C2.0595 17.0623 1.03521 16.0841 0.833819 14.7973C0.388727 11.9534 0.388727 9.05399 0.833819 6.21013C1.03521 4.92337 2.0595 3.94509 3.3152 3.84022L4.9552 3.70324ZM7.76133 2.11921C8.914 1.94031 10.086 1.94031 11.2387 2.11921L12.4059 2.30037C12.523 2.31854 12.6096 2.42262 12.6096 2.54514V3.59912C10.5382 3.47688 8.46179 3.47688 6.3904 3.59912V2.54514C6.3904 2.42262 6.47702 2.31854 6.59412 2.30037L7.76133 2.11921ZM5.22172 5.17084C8.06928 4.93301 10.9307 4.93301 13.7783 5.17084L15.5693 5.32043C16.1665 5.37031 16.6537 5.83556 16.7494 6.44752C16.8091 6.82861 16.8603 7.21075 16.903 7.59365C12.2361 9.97148 6.76392 9.97148 2.09701 7.59366C2.13974 7.21076 2.19092 6.82861 2.25057 6.44752C2.34634 5.83557 2.83348 5.37031 3.43067 5.32043L5.22172 5.17084ZM1.96891 9.17378C6.75235 11.4248 12.2477 11.4248 17.0311 9.17378C17.1223 10.9718 17.0284 12.7774 16.7494 14.5599C16.6537 15.1719 16.1665 15.6371 15.5693 15.687L13.7783 15.8366C10.9307 16.0744 8.06928 16.0744 5.22172 15.8366L3.43067 15.687C2.83348 15.6371 2.34634 15.1719 2.25057 14.5599C1.97159 12.7774 1.8777 10.9718 1.96891 9.17378Z" fill="#747474"/>
</g>
</svg>
