<svg width="19" height="19" viewBox="0 0 19 19" fill="none" xmlns="http://www.w3.org/2000/svg">
<g id="Menu Icones">
<g id="Icon">
<path fill-rule="evenodd" clip-rule="evenodd" d="M5.1129 5.24205C5.1129 2.88467 7.07707 0.973633 9.5 0.973633C11.9229 0.973633 13.8871 2.88467 13.8871 5.24205C13.8871 7.59943 11.9229 9.51047 9.5 9.51047C7.07707 9.51047 5.1129 7.59943 5.1129 5.24205ZM9.5 2.48013C7.93222 2.48013 6.66129 3.71669 6.66129 5.24205C6.66129 6.76741 7.93222 8.00397 9.5 8.00397C11.0678 8.00397 12.3387 6.76741 12.3387 5.24205C12.3387 3.71669 11.0678 2.48013 9.5 2.48013Z" fill="#747474"/>
<path fill-rule="evenodd" clip-rule="evenodd" d="M5.37097 12.5235C4.08824 12.5235 3.04839 13.5352 3.04839 14.7832V15.9766C3.04839 15.9948 3.06192 16.0103 3.08036 16.0132C7.33197 16.6886 11.668 16.6886 15.9196 16.0132C15.9381 16.0103 15.9516 15.9948 15.9516 15.9766V14.7832C15.9516 13.5352 14.9118 12.5235 13.629 12.5235H13.2772C13.25 12.5235 13.2229 12.5277 13.1971 12.5359L12.3036 12.8197C10.4819 13.3985 8.51813 13.3985 6.69637 12.8197L5.80294 12.5359C5.77707 12.5277 5.75004 12.5235 5.72283 12.5235H5.37097ZM1.5 14.7832C1.5 12.7032 3.23309 11.017 5.37097 11.017H5.72283C5.91328 11.017 6.10252 11.0463 6.28356 11.1038L7.17699 11.3876C8.68645 11.8672 10.3136 11.8672 11.823 11.3876L12.7164 11.1038C12.8975 11.0463 13.0867 11.017 13.2772 11.017H13.629C15.7669 11.017 17.5 12.7032 17.5 14.7832V15.9766C17.5 16.7331 16.9365 17.3782 16.1691 17.5001C11.7523 18.2017 7.24771 18.2017 2.83086 17.5001C2.06349 17.3782 1.5 16.7331 1.5 15.9766V14.7832Z" fill="#747474"/>
</g>
</g>
</svg>
