<svg width="22" height="23" viewBox="0 0 22 23" fill="none" xmlns="http://www.w3.org/2000/svg">
<g id="Outline/Interface/Trash">
<g id="Icon">
<path d="M9.34401 3.0415C9.00105 3.0415 8.72304 3.3304 8.72304 3.68677V4.33203H5.20422C4.86127 4.33203 4.58325 4.62093 4.58325 4.9773C4.58325 5.33367 4.86127 5.62256 5.20422 5.62256H16.7956C17.1386 5.62256 17.4166 5.33367 17.4166 4.9773C17.4166 4.62093 17.1386 4.33203 16.7956 4.33203H13.2768V3.68677C13.2768 3.3304 12.9988 3.0415 12.6558 3.0415H9.34401Z" fill="#747474"/>
<path d="M9.34401 10.2685C9.68696 10.2685 9.96497 10.5574 9.96497 10.9137V16.9362C9.96497 17.2926 9.68696 17.5815 9.344 17.5815C9.00105 17.5815 8.72304 17.2926 8.72304 16.9362L8.72304 10.9137C8.72304 10.5574 9.00105 10.2685 9.34401 10.2685Z" fill="#747474"/>
<path d="M13.2768 10.9137C13.2768 10.5574 12.9988 10.2685 12.6558 10.2685C12.3129 10.2685 12.0349 10.5574 12.0349 10.9137V16.9362C12.0349 17.2926 12.3129 17.5815 12.6558 17.5815C12.9988 17.5815 13.2768 17.2926 13.2768 16.9362V10.9137Z" fill="#747474"/>
<path fill-rule="evenodd" clip-rule="evenodd" d="M6.02508 7.91728C6.06002 7.5905 6.32583 7.34327 6.64225 7.34327H15.3576C15.674 7.34327 15.9398 7.5905 15.9748 7.91728L16.1405 9.46707C16.4409 12.2764 16.4409 15.1117 16.1405 17.921L16.1242 18.0736C16.0049 19.1887 15.1732 20.0779 14.1039 20.2335C12.0446 20.5331 9.95523 20.5331 7.89597 20.2335C6.82664 20.0779 5.99492 19.1887 5.87568 18.0736L5.85936 17.921C5.55897 15.1117 5.55897 12.2764 5.85936 9.46707L6.02508 7.91728ZM7.19804 8.6338L7.0937 9.60959C6.80344 12.3242 6.80344 15.0639 7.0937 17.7785L7.11001 17.9311C7.16657 18.4599 7.56102 18.8816 8.06816 18.9554C10.0132 19.2384 11.9866 19.2384 13.9317 18.9554C14.4388 18.8816 14.8333 18.4599 14.8898 17.9311L14.9061 17.7785C15.1964 15.0639 15.1964 12.3242 14.9061 9.60959L14.8018 8.6338H7.19804Z" fill="#747474"/>
</g>
</g>
</svg>
